<?xml version="1.0" standalone="no"?>
<!DOCTYPE svg PUBLIC "-//W3C//DTD SVG 20010904//EN"
 "http://www.w3.org/TR/2001/REC-SVG-20010904/DTD/svg10.dtd">
<svg version="1.0" xmlns="http://www.w3.org/2000/svg"
 width="452.000000pt" height="452.000000pt" viewBox="0 0 452.000000 452.000000"
 preserveAspectRatio="xMidYMid meet">

<g transform="translate(0.000000,452.000000) scale(0.100000,-0.100000)"
fill="#000000" stroke="none">
<path d="M2145 4505 c-106 -19 -184 -53 -480 -204 -499 -256 -795 -368 -1250
-475 l-140 -33 -3 -44 c-5 -68 16 -466 34 -623 110 -1011 511 -1881 1163
-2526 226 -223 518 -442 743 -556 l51 -26 51 28 c241 130 602 427 840 692 700
780 1072 1761 1088 2872 l3 184 -40 9 c-253 56 -498 127 -700 202 -212 79
-354 144 -650 296 -299 153 -374 185 -485 205 -91 16 -134 16 -225 -1z m264
-194 c47 -16 235 -103 416 -193 182 -90 391 -188 465 -217 169 -67 474 -168
644 -212 l129 -33 -6 -170 c-15 -413 -91 -846 -217 -1231 -156 -476 -397 -913
-711 -1290 -224 -269 -582 -581 -820 -714 l-56 -31 -105 63 c-192 115 -344
234 -532 417 -547 530 -911 1227 -1070 2045 -49 252 -86 604 -86 810 l0 101
163 44 c374 99 664 213 1100 431 440 221 509 239 686 180z"/>
<path d="M2842 2921 c-102 -35 -166 -113 -178 -218 -16 -131 33 -222 180 -332
112 -83 141 -125 141 -198 0 -60 -23 -98 -76 -126 -40 -22 -143 -18 -202 7
l-36 15 -11 -57 c-6 -31 -13 -62 -15 -68 -5 -16 33 -31 111 -45 121 -21 232 8
304 80 57 57 80 119 80 215 0 119 -53 205 -179 293 -86 61 -110 82 -128 117
-20 39 -19 108 3 141 34 52 126 70 206 41 l38 -14 9 37 c27 104 28 98 -30 115
-69 21 -152 20 -217 -3z"/>
<path d="M1581 2893 c-6 -21 -55 -243 -111 -493 -56 -250 -104 -465 -107 -477
-5 -22 -3 -23 74 -23 l79 0 18 88 c10 48 22 108 28 135 l10 47 103 0 103 0 10
-47 c6 -27 19 -87 29 -135 l18 -88 77 0 c43 0 78 2 78 5 0 4 -178 867 -201
978 l-11 47 -93 0 -94 0 -10 -37z m135 -335 c20 -111 38 -218 41 -235 l6 -33
-87 0 c-47 0 -86 3 -86 8 0 4 15 88 34 187 18 99 37 204 41 233 4 29 9 51 12
49 2 -3 20 -97 39 -209z"/>
<path d="M2120 2415 l0 -515 220 0 220 0 0 70 0 70 -140 0 -140 0 0 165 0 165
120 0 120 0 0 65 0 65 -120 0 -120 0 0 145 0 145 130 0 130 0 0 70 0 70 -210
0 -210 0 0 -515z"/>
</g>
</svg>
