<?xml version="1.0" standalone="no"?>
<!DOCTYPE svg PUBLIC "-//W3C//DTD SVG 20010904//EN"
 "http://www.w3.org/TR/2001/REC-SVG-20010904/DTD/svg10.dtd">
<svg version="1.0" xmlns="http://www.w3.org/2000/svg"
 width="208.000000pt" height="209.000000pt" viewBox="0 0 208.000000 209.000000"
 preserveAspectRatio="xMidYMid meet">

<g transform="translate(0.000000,209.000000) scale(0.100000,-0.100000)"
fill="#000000" stroke="none">
<path d="M831 1988 c-10 -17 -13 -17 -27 -3 -18 17 -34 20 -34 4 0 -5 -4 -7
-10 -4 -5 3 -10 0 -10 -7 0 -10 -2 -10 -9 1 -5 8 -14 10 -22 5 -8 -4 -20 -9
-29 -10 -16 -3 -52 -11 -60 -14 -3 -1 -8 -2 -12 -1 -5 0 -8 -3 -8 -9 0 -5 -7
-6 -17 -3 -11 4 -14 3 -9 -5 4 -8 2 -10 -7 -6 -8 3 -18 1 -21 -5 -4 -6 -12 -8
-19 -6 -7 3 -19 1 -27 -5 -12 -7 -12 -12 -2 -22 20 -20 14 -28 -14 -18 -33 13
-34 13 -28 -7 5 -15 3 -15 -10 1 -9 11 -16 15 -16 8 0 -6 -7 -9 -14 -6 -8 3
-25 -4 -38 -16 -13 -12 -35 -26 -49 -32 -15 -5 -29 -18 -32 -30 -3 -11 -10
-17 -16 -13 -6 3 -11 -1 -11 -9 0 -10 -6 -13 -17 -9 -15 5 -15 3 2 -11 16 -14
16 -16 3 -12 -9 2 -22 -2 -29 -10 -7 -8 -18 -13 -26 -10 -7 3 -13 3 -13 0 0
-2 11 -9 25 -14 14 -5 25 -14 25 -19 0 -6 -13 -3 -29 6 -27 16 -30 16 -46 0
-9 -10 -14 -24 -11 -32 3 -9 0 -12 -10 -8 -7 3 -14 2 -14 -1 0 -4 12 -11 26
-17 15 -5 24 -12 21 -15 -3 -3 -15 0 -27 6 -32 17 -42 8 -25 -22 14 -28 8 -37
-12 -17 -14 14 -29 5 -36 -22 -3 -11 -3 -18 0 -15 3 3 12 -2 19 -12 7 -9 16
-13 20 -9 5 4 2 12 -6 17 -16 10 -23 40 -9 40 5 0 9 -7 9 -15 0 -17 9 -19 28
-6 16 10 81 -19 103 -45 12 -15 12 -16 -6 -11 -57 17 -75 19 -75 7 0 -7 -7
-10 -15 -6 -8 3 -15 1 -15 -4 0 -6 8 -10 18 -10 9 0 31 -12 47 -25 l30 -26
-35 7 c-19 3 -48 13 -65 22 -38 20 -74 22 -68 5 3 -7 -1 -13 -8 -13 -7 0 -10
-3 -7 -6 3 -3 15 0 26 7 18 11 26 10 54 -4 l33 -18 -45 5 c-25 2 -39 2 -32 -1
18 -7 15 -21 -6 -26 -11 -3 -7 -5 10 -6 14 0 28 4 30 11 6 18 110 13 149 -8
l34 -18 -32 -7 c-29 -6 -79 0 -123 13 -8 3 -12 3 -7 1 4 -3 5 -9 1 -14 -3 -5
14 -9 38 -9 42 -1 43 -1 18 -15 -14 -8 -43 -15 -65 -16 l-40 -2 35 -6 c26 -4
46 0 80 17 39 21 56 23 135 20 121 -5 207 -44 324 -146 70 -60 97 -94 161
-195 54 -87 82 -144 97 -197 12 -41 35 -122 52 -180 l31 -105 0 -267 0 -268
30 0 30 0 0 268 0 267 31 105 c17 58 40 139 52 180 15 53 43 110 97 197 64
101 91 135 161 195 117 102 203 141 324 146 79 3 96 1 135 -20 34 -17 54 -21
80 -17 l35 6 -40 2 c-22 1 -51 8 -65 16 -25 14 -24 14 18 15 24 0 41 4 38 9
-4 5 -3 11 1 14 5 2 1 2 -7 -1 -44 -13 -94 -19 -123 -13 l-32 7 34 18 c39 21
143 26 149 8 2 -7 16 -11 30 -11 17 1 21 3 10 6 -21 5 -24 19 -5 26 6 3 -8 3
-33 1 l-45 -5 33 18 c28 14 36 15 54 4 11 -7 23 -10 26 -7 3 3 0 6 -7 6 -8 0
-11 7 -7 15 3 9 -1 18 -9 21 -8 4 -12 10 -9 15 3 5 11 6 17 3 9 -5 9 -4 0 6
-9 10 -16 9 -33 -3 l-21 -15 28 -11 c18 -7 21 -10 8 -9 -11 1 -33 -5 -50 -14
-16 -8 -46 -19 -65 -22 l-35 -7 30 26 c17 13 38 25 48 25 9 0 17 4 17 10 0 5
-7 7 -15 4 -8 -4 -15 -1 -15 6 0 12 -18 10 -75 -7 -18 -5 -18 -4 -6 11 22 26
87 55 103 45 19 -13 28 -11 28 6 0 8 4 15 9 15 13 0 7 -30 -8 -40 -9 -5 -10
-9 -2 -14 6 -4 14 0 17 8 3 9 10 14 14 11 5 -3 6 4 3 15 -7 26 -22 35 -36 21
-20 -20 -26 -11 -12 17 17 30 7 39 -25 22 -12 -6 -24 -9 -27 -6 -3 3 6 10 21
15 14 6 26 13 26 17 0 3 -6 4 -14 1 -10 -4 -12 0 -9 14 3 11 0 19 -6 19 -7 0
-10 -4 -7 -9 3 -5 -2 -15 -12 -22 -15 -13 -16 -12 -3 4 11 14 11 17 0 17 -11
0 -11 2 1 10 27 17 -1 25 -31 8 -16 -9 -29 -13 -29 -7 0 5 11 14 25 19 14 5
25 12 25 14 0 3 -6 3 -13 0 -8 -3 -19 2 -26 10 -7 8 -20 12 -29 10 -13 -4 -13
-2 3 12 17 14 17 16 3 11 -12 -4 -18 -1 -18 9 0 8 -4 13 -9 10 -5 -3 -16 5
-25 19 -9 14 -22 25 -29 25 -7 0 -25 12 -40 26 -15 14 -35 23 -43 20 -7 -3
-14 0 -14 6 0 7 -7 3 -16 -8 -13 -16 -15 -16 -10 -1 6 20 5 20 -28 7 -28 -10
-34 -2 -14 18 10 10 10 15 -2 22 -8 6 -20 8 -27 5 -7 -2 -15 0 -19 6 -3 6 -13
8 -21 5 -9 -4 -11 -2 -7 6 5 8 2 9 -9 5 -10 -3 -17 -2 -17 3 0 6 -3 9 -7 9 -5
-1 -10 0 -13 1 -8 3 -44 11 -60 14 -9 1 -21 6 -29 10 -8 5 -17 3 -22 -5 -7
-11 -9 -11 -9 -1 0 7 -4 10 -10 7 -5 -3 -10 -1 -10 4 0 6 -4 11 -10 11 -5 0
-7 -8 -4 -17 5 -15 4 -16 -5 -3 -9 12 -13 13 -20 1 -7 -10 -11 -9 -22 6 -13
18 -28 19 -210 19 -181 0 -197 -1 -208 -18z m-108 -51 c3 -7 -3 -13 -14 -14
-15 -1 -16 1 -6 12 15 18 14 18 20 2z m662 -9 c6 -5 0 -7 -12 -5 -12 2 -26 7
-30 12 -5 4 -2 5 5 1 7 -4 12 -2 12 5 0 7 3 8 8 3 4 -5 12 -12 17 -16z m-445
-18 c0 -5 -2 -10 -4 -10 -3 0 -8 5 -11 10 -3 6 -1 10 4 10 6 0 11 -4 11 -10z
m21 -13 c-10 -9 -11 -8 -5 6 3 10 9 15 12 12 3 -3 0 -11 -7 -18z m163 7 c3 -8
2 -12 -4 -9 -6 3 -10 10 -10 16 0 14 7 11 14 -7z m36 12 c0 -3 -4 -8 -10 -11
-5 -3 -10 -1 -10 4 0 6 5 11 10 11 6 0 10 -2 10 -4z m-440 -28 c0 -18 -2 -20
-9 -8 -6 8 -7 18 -5 22 9 14 14 9 14 -14z m653 -3 c-7 -21 -13 -19 -13 6 0 11
4 18 10 14 5 -3 7 -12 3 -20z m-776 -23 c3 -21 1 -24 -7 -12 -11 17 -14 57 -3
46 4 -4 9 -19 10 -34z m248 28 c3 -5 1 -10 -4 -10 -6 0 -11 5 -11 10 0 6 2 10
4 10 3 0 8 -4 11 -10z m405 0 c0 -5 -5 -10 -11 -10 -5 0 -7 5 -4 10 3 6 8 10
11 10 2 0 4 -4 4 -10z m241 -37 c-9 -15 -10 -13 -7 12 6 40 8 43 13 23 2 -10
0 -25 -6 -35z m-466 27 c3 -5 1 -10 -4 -10 -6 0 -11 5 -11 10 0 6 2 10 4 10 3
0 8 -4 11 -10z m45 0 c0 -5 -5 -10 -11 -10 -5 0 -7 5 -4 10 3 6 8 10 11 10 2
0 4 -4 4 -10z m-109 -27 c-8 -15 -10 -15 -11 -2 0 17 10 32 18 25 2 -3 -1 -13
-7 -23z m169 -1 c0 -15 -2 -15 -10 -2 -13 20 -13 33 0 25 6 -3 10 -14 10 -23z
m-333 -6 c-3 -8 -1 -16 5 -18 7 -3 9 -12 4 -24 -8 -18 -8 -18 -18 3 -10 21 -5
53 8 53 3 0 4 -6 1 -14z m78 4 c-3 -5 -10 -10 -16 -10 -5 0 -9 5 -9 10 0 6 7
10 16 10 8 0 12 -4 9 -10z m135 0 c0 -5 -4 -10 -10 -10 -5 0 -10 5 -10 10 0 6
5 10 10 10 6 0 10 -4 10 -10z m80 0 c0 -5 -4 -10 -10 -10 -5 0 -10 5 -10 10 0
6 5 10 10 10 6 0 10 -4 10 -10z m140 0 c0 -5 -4 -10 -9 -10 -6 0 -13 5 -16 10
-3 6 1 10 9 10 9 0 16 -4 16 -10z m66 -35 c-4 -14 -11 -23 -16 -20 -13 8 -13
35 0 35 5 0 7 8 3 18 -5 13 -3 15 7 5 8 -7 10 -22 6 -38z m-878 -1 c-4 -3 -12
5 -18 18 -12 22 -12 22 6 6 10 -10 15 -20 12 -24z m27 7 c2 -11 0 -21 -4 -21
-5 0 -8 11 -8 25 0 30 6 28 12 -4z m481 16 c16 6 16 6 19 -57 1 -25 0 -38 -3
-30 -2 8 -11 23 -19 32 -8 9 -12 21 -9 27 4 5 2 12 -4 16 -5 3 -10 12 -9 18 0
9 2 9 5 0 3 -7 12 -9 20 -6z m246 -10 c-7 -8 -9 -17 -5 -20 3 -4 -1 -15 -9
-24 -9 -10 -18 -25 -20 -33 -3 -8 -4 5 -3 30 3 63 3 63 20 56 8 -3 15 0 15 6
0 6 3 8 6 5 4 -4 2 -13 -4 -20z m476 -2 c0 -14 -4 -25 -8 -25 -5 0 -7 8 -5 18
2 9 4 20 4 25 2 18 9 4 9 -18z m32 4 c-7 -11 -14 -18 -17 -15 -3 3 0 12 7 21
18 21 23 19 10 -6z m-1032 -6 c-1 -10 0 -22 3 -28 4 -5 9 -22 13 -37 5 -22 3
-28 -9 -28 -12 0 -15 6 -10 21 5 13 3 19 -3 15 -10 -6 -22 15 -22 40 0 9 5 12
12 8 8 -5 9 -2 5 9 -3 10 -2 17 4 17 6 0 9 -8 7 -17z m72 -4 c0 -5 -4 -9 -10
-9 -5 0 -10 7 -10 16 0 8 5 12 10 9 6 -3 10 -10 10 -16z m656 -6 c-10 -10 -19
5 -10 18 6 11 8 11 12 0 2 -7 1 -15 -2 -18z m67 10 c-4 -11 -3 -14 5 -9 7 4
12 1 12 -8 0 -25 -12 -46 -22 -40 -6 4 -8 -2 -3 -15 5 -15 2 -21 -10 -21 -12
0 -14 6 -9 28 4 15 9 32 13 37 3 6 4 18 3 28 -2 9 1 17 7 17 6 0 7 -7 4 -17z
m-898 -3 c3 -5 2 -10 -4 -10 -5 0 -13 5 -16 10 -3 6 -2 10 4 10 5 0 13 -4 16
-10z m56 -24 c8 -27 7 -28 -12 -10 -21 19 -26 48 -7 42 7 -3 15 -17 19 -32z
m419 13 c0 -11 -4 -17 -10 -14 -5 3 -10 13 -10 21 0 8 5 14 10 14 6 0 10 -9
10 -21z m60 7 c0 -8 -4 -18 -10 -21 -5 -3 -10 3 -10 14 0 12 5 21 10 21 6 0
10 -6 10 -14z m430 1 c0 -8 -9 -22 -20 -32 -18 -17 -20 -17 -15 -2 3 9 7 24
10 32 6 19 25 20 25 2z m45 3 c-3 -5 -11 -10 -16 -10 -6 0 -7 5 -4 10 3 6 11
10 16 10 6 0 7 -4 4 -10z m-1070 -10 c-3 -5 -1 -10 4 -10 6 0 11 -7 11 -15 0
-17 -16 -20 -25 -5 -7 12 0 40 10 40 4 0 3 -4 0 -10z m565 -25 c0 -19 -4 -35
-10 -35 -5 0 -10 16 -10 35 0 19 5 35 10 35 6 0 10 -16 10 -35z m557 1 c-8
-20 -27 -21 -27 -1 0 8 5 15 11 15 5 0 7 6 3 13 -5 9 -4 9 6 0 7 -6 10 -19 7
-27z m-1197 -6 c0 -3 -5 -12 -10 -20 -8 -12 -11 -13 -22 -2 -7 8 -8 13 -3 12
24 -5 27 1 9 21 -19 22 -19 22 4 8 12 -8 22 -16 22 -19z m411 -3 c-8 -8 -11
-7 -11 4 0 20 13 34 18 19 3 -7 -1 -17 -7 -23z m449 7 c0 -8 -4 -12 -10 -9 -5
3 -10 13 -10 21 0 8 5 12 10 9 6 -3 10 -13 10 -21z m-749 -11 c-12 -20 -14
-14 -5 12 4 9 9 14 11 11 3 -2 0 -13 -6 -23z m209 12 c7 -9 11 -18 8 -20 -8
-9 -36 5 -42 21 -7 19 18 18 34 -1z m170 -40 c0 -47 -17 -53 -36 -11 -21 43
-13 72 16 56 14 -7 20 -21 20 -45z m109 23 c13 -22 13 -34 1 -82 -18 -74 -31
-60 -38 40 -4 62 -2 76 9 72 8 -3 20 -16 28 -30z m99 -41 c-6 -96 -17 -114
-34 -56 -18 58 -17 80 2 107 28 40 37 26 32 -51z m122 47 c0 -24 -30 -75 -40
-69 -17 11 -11 73 7 84 21 11 33 6 33 -15z m154 12 c-6 -16 -34 -30 -42 -21
-8 7 19 35 34 35 7 0 11 -6 8 -14z m186 -21 c0 -5 -5 -3 -10 5 -5 8 -10 20
-10 25 0 6 5 3 10 -5 5 -8 10 -19 10 -25z m-1230 4 c0 -6 -4 -7 -10 -4 -5 3
-10 11 -10 16 0 6 5 7 10 4 6 -3 10 -11 10 -16z m224 5 c9 -8 16 -25 16 -37 0
-21 -1 -21 -26 5 -15 14 -23 31 -20 37 9 14 12 14 30 -5z m226 -10 c0 -8 9
-23 20 -34 11 -11 20 -25 20 -32 0 -9 -3 -9 -11 -1 -6 6 -19 9 -28 6 -12 -4
-13 -3 -3 5 11 7 8 15 -13 35 -15 14 -25 30 -21 35 9 15 36 4 36 -14z m516
-20 c-22 -21 -25 -29 -14 -36 10 -8 9 -9 -3 -5 -9 3 -22 0 -28 -6 -8 -8 -11
-8 -11 1 0 7 9 21 20 32 11 11 20 26 20 34 0 18 22 27 35 15 6 -6 -1 -19 -19
-35z m221 -1 c-26 -26 -27 -27 -27 -6 0 12 7 29 16 38 12 12 20 13 27 6 8 -8
4 -19 -16 -38z m161 35 c-2 -7 4 -12 12 -10 12 3 13 1 2 -10 -11 -11 -14 -10
-22 2 -13 19 -12 30 0 30 6 0 9 -6 8 -12z m64 -10 c-7 -7 -12 -8 -12 -2 0 6 3
14 7 17 3 4 9 5 12 2 2 -3 -1 -11 -7 -17z m-1307 -14 c16 -24 16 -26 -1 -22
-9 1 -19 13 -20 26 -5 29 0 28 21 -4z m1211 4 c-1 -13 -11 -25 -20 -26 -17 -4
-17 -2 -1 22 21 32 26 33 21 4z m-936 -11 c14 4 20 0 20 -12 0 -14 -3 -15 -15
-5 -12 10 -15 10 -15 -4 0 -9 5 -16 11 -16 5 0 7 -4 4 -10 -3 -5 -1 -10 5 -10
8 0 10 -9 5 -27 -9 -38 -12 -39 -35 -18 -22 20 -27 75 -7 76 10 0 10 2 0 6 -7
2 -13 14 -13 26 1 19 2 20 10 5 6 -10 18 -14 30 -11z m668 -18 c-10 -6 -10 -9
0 -9 20 0 14 -55 -8 -75 -23 -21 -26 -20 -35 18 -5 18 -3 27 5 27 6 0 8 5 5
10 -3 6 -1 10 4 10 6 0 11 7 11 16 0 14 -3 14 -15 4 -12 -10 -15 -9 -15 5 0
13 6 16 21 12 13 -4 22 0 27 11 6 15 7 15 10 -2 2 -10 -2 -22 -10 -27z m-894
22 c4 -5 2 -20 -3 -33 -11 -25 -11 -25 -17 15 -4 26 8 37 20 18z m1112 -18
c-6 -40 -6 -40 -17 -15 -9 25 -5 42 12 42 5 0 8 -12 5 -27z m-1260 6 c3 -6 1
-15 -7 -19 -10 -7 -10 -11 0 -24 7 -8 10 -19 7 -25 -3 -5 0 -12 6 -15 7 -3 4
-5 -7 -3 -11 1 -19 7 -18 12 1 6 -7 20 -18 32 -18 19 -19 21 -3 20 9 -1 19 4
22 12 3 10 -2 11 -19 6 -19 -5 -21 -4 -9 4 20 14 37 14 46 0z m39 3 c13 -9 35
-49 35 -63 0 -17 -29 9 -46 43 -14 27 -10 35 11 20z m232 -9 c4 -10 16 -25 28
-35 27 -22 17 -28 -22 -12 -25 11 -33 20 -33 39 0 29 17 33 27 8z m873 -8 c0
-19 -8 -28 -32 -39 -40 -16 -50 -10 -23 12 12 10 24 25 28 35 10 25 27 21 27
-8z m216 -3 c-17 -34 -46 -60 -46 -43 0 14 22 54 35 63 21 15 25 7 11 -20z
m74 17 c12 -9 12 -10 -4 -5 -11 4 -23 1 -27 -6 -4 -7 -11 -9 -14 -6 -9 9 3 28
18 28 7 0 19 -5 27 -11z m-1018 -31 c-9 -9 -12 -7 -12 12 0 19 3 21 12 12 9
-9 9 -15 0 -24z m568 10 c0 -16 -3 -19 -11 -11 -6 6 -8 16 -5 22 11 17 16 13
16 -11z m-806 3 c3 -5 0 -11 -7 -14 -8 -3 -14 1 -14 9 0 16 13 19 21 5z m55
-18 c2 -2 -3 -3 -11 -3 -9 0 -19 7 -22 16 -6 15 -4 15 11 3 10 -7 20 -15 22
-16z m301 -25 c0 -4 -7 -5 -15 -2 -8 4 -15 10 -15 14 0 5 -3 17 -6 27 -4 13 0
11 15 -7 11 -14 21 -28 21 -32z m84 -18 c22 -66 22 -66 -24 -30 -44 35 -45 37
-30 75 14 36 33 20 54 -45z m211 29 c5 -22 0 -31 -34 -58 -46 -36 -47 -35 -25
29 26 76 45 85 59 29z m59 19 c-6 -22 -25 -41 -32 -33 -4 4 28 55 35 55 2 0 1
-10 -3 -22z m300 7 c-4 -8 -13 -15 -22 -15 -13 0 -12 3 4 15 24 18 25 18 18 0z
m43 1 c0 -8 -6 -12 -14 -9 -7 3 -10 9 -7 14 8 14 21 11 21 -5z m-1293 -15 c17
-19 17 -19 -3 -14 -12 3 -21 12 -21 19 0 18 4 18 24 -5z m386 9 c0 -5 -2 -10
-4 -10 -3 0 -8 5 -11 10 -3 6 -1 10 4 10 6 0 11 -4 11 -10z m393 -55 c17 -63
17 -67 0 -95 -9 -17 -20 -30 -23 -30 -3 0 -14 13 -23 30 -17 28 -17 32 0 95 9
36 20 65 23 65 3 0 14 -29 23 -65z m367 61 c0 -3 -4 -8 -10 -11 -5 -3 -10 -1
-10 4 0 6 5 11 10 11 6 0 10 -2 10 -4z m340 -21 c-21 -22 -20 -30 3 -26 4 0 7
-3 7 -8 0 -5 -11 -8 -24 -8 -32 0 -29 37 4 54 35 18 37 16 10 -12z m50 11 c0
-7 -9 -16 -21 -19 -20 -5 -20 -5 -3 14 20 23 24 23 24 5z m-1409 -42 c13 -16
12 -17 -11 -11 -14 4 -28 7 -32 7 -5 0 -8 9 -8 20 0 17 3 19 18 11 10 -5 25
-18 33 -27z m1307 1 c-2 -2 -17 -6 -33 -10 l-30 -6 30 27 c26 24 30 25 33 10
2 -10 2 -19 0 -21z m-1453 5 c10 16 25 2 24 -23 -1 -17 -2 -18 -6 -4 -6 24
-22 22 -20 -3 1 -11 7 -20 14 -20 7 0 13 -7 13 -15 0 -18 -29 -20 -32 -2 0 6
-2 17 -2 23 -2 16 -32 44 -40 37 -3 -4 -6 -2 -6 4 0 19 14 23 31 7 11 -10 19
-12 24 -4z m199 14 c23 -9 21 -47 -1 -42 -10 2 -17 11 -17 21 1 9 -2 14 -7 11
-5 -3 -9 0 -9 5 0 12 11 14 34 5z m98 -16 c20 -31 41 -98 34 -105 -13 -13
-106 94 -106 122 0 3 13 5 29 5 19 0 34 -8 43 -22z m264 14 c18 -11 34 -81 34
-152 l0 -65 -35 52 c-35 52 -65 123 -65 156 0 12 8 17 28 17 15 0 32 -4 38 -8z
m494 -11 c0 -33 -28 -98 -64 -153 l-36 -53 0 65 c0 71 16 141 34 152 6 4 23 8
39 8 20 0 27 -5 27 -19z m270 14 c0 -28 -93 -135 -106 -122 -7 7 14 74 34 105
9 14 24 22 43 22 16 0 29 -2 29 -5z m60 -6 c0 -5 -4 -8 -9 -5 -5 3 -8 -2 -7
-11 0 -10 -7 -19 -16 -21 -21 -4 -26 33 -5 41 21 9 37 7 37 -4z m220 -11 c0
-6 -3 -9 -6 -5 -8 7 -38 -21 -40 -37 0 -6 -2 -17 -2 -23 -3 -18 -32 -16 -32 2
0 8 6 15 13 15 7 0 13 9 14 20 1 11 -2 20 -8 20 -5 0 -9 -8 -10 -17 0 -11 -2
-13 -6 -5 -3 7 -2 20 1 28 5 13 9 14 20 5 10 -8 16 -8 26 4 13 16 30 12 30 -7z
m-1679 -5 c13 -16 12 -17 -3 -4 -10 7 -18 15 -18 17 0 8 8 3 21 -13z m456 -2
c25 -16 34 -30 43 -73 6 -29 10 -77 8 -107 l-3 -55 -36 55 c-31 47 -69 151
-69 187 0 17 21 15 57 -7z m843 7 c0 -36 -38 -140 -69 -187 l-36 -55 -3 55
c-2 30 2 78 8 107 9 43 18 57 43 73 36 22 57 24 57 7z m-1107 -77 c21 -35 19
-36 -28 -17 -18 8 -36 11 -40 8 -4 -4 -6 -2 -4 3 1 6 -1 18 -6 29 -5 12 -3 21
6 27 10 6 10 9 2 9 -7 0 -13 5 -13 11 0 16 63 -37 83 -70z m497 65 c0 -3 -4
-8 -10 -11 -5 -3 -10 -1 -10 4 0 6 5 11 10 11 6 0 10 -2 10 -4z m340 -6 c0 -5
-2 -10 -4 -10 -3 0 -8 5 -11 10 -3 6 -1 10 4 10 6 0 11 -4 11 -10z m-762 -48
c23 -42 44 -112 33 -112 -17 0 -121 126 -121 147 0 5 15 7 34 5 26 -3 38 -12
54 -40z m522 -91 c0 -60 -37 -231 -50 -231 -3 0 -15 35 -28 78 -22 77 -30 216
-16 269 6 22 7 22 50 -13 44 -36 44 -37 44 -103z m219 15 c1 -65 -5 -112 -21
-168 -13 -43 -25 -78 -28 -78 -13 0 -50 171 -50 230 0 64 0 66 42 102 53 45
56 40 57 -86z m490 72 c-27 -40 -90 -108 -100 -108 -11 0 10 70 34 112 15 28
27 38 51 40 40 4 43 -4 15 -44z m91 27 c0 -8 -5 -17 -10 -20 -6 -4 -7 -12 -4
-18 4 -7 4 -9 0 -5 -4 3 -23 0 -41 -8 -47 -19 -50 -18 -30 14 34 53 85 75 85
37z m-1535 -9 c-1 -11 19 -39 49 -68 54 -53 56 -67 5 -45 -40 17 -90 67 -68
68 8 0 4 4 -8 9 -13 5 -23 14 -23 21 0 6 7 8 17 5 15 -6 15 -4 -2 14 -18 20
-18 20 7 18 17 -1 24 -8 23 -22z m260 14 c3 -5 1 -10 -4 -10 -6 0 -11 5 -11
10 0 6 2 10 4 10 3 0 8 -4 11 -10z m255 -16 c0 -8 -4 -12 -10 -9 -5 3 -10 13
-10 21 0 8 5 12 10 9 6 -3 10 -13 10 -21z m571 -7 c-8 -8 -11 -7 -11 4 0 9 3
19 7 23 4 4 9 2 11 -4 3 -7 -1 -17 -7 -23z m259 23 c0 -5 -5 -10 -11 -10 -5 0
-7 5 -4 10 3 6 8 10 11 10 2 0 4 -4 4 -10z m274 -12 c-17 -19 -17 -21 -1 -15
25 9 21 -12 -5 -23 -13 -5 -17 -9 -9 -9 22 -1 -27 -49 -71 -71 -52 -25 -48 -6
10 50 29 28 48 55 47 66 -1 14 6 21 23 22 25 2 25 2 6 -20z m-1384 -9 c0 -6
-4 -7 -10 -4 -5 3 -10 11 -10 16 0 6 5 7 10 4 6 -3 10 -11 10 -16z m1132 -1
c-7 -7 -12 -8 -12 -2 0 6 3 14 7 17 3 4 9 5 12 2 2 -3 -1 -11 -7 -17z m-1417
-19 c14 -22 -6 -21 -25 1 -11 13 -20 25 -20 27 0 7 39 -17 45 -28z m525 10 c0
-6 -4 -7 -10 -4 -5 3 -10 11 -10 16 0 6 5 7 10 4 6 -3 10 -11 10 -16z m652 -1
c-7 -7 -12 -8 -12 -2 0 6 3 14 7 17 3 4 9 5 12 2 2 -3 -1 -11 -7 -17z m558 19
c0 -12 -41 -49 -48 -43 -4 4 4 16 17 27 23 18 31 23 31 16z m-1373 -48 c63
-54 134 -167 157 -249 10 -36 21 -74 24 -84 3 -13 -16 -1 -60 35 -75 63 -148
170 -172 252 -29 100 -21 108 51 46z m1033 25 c0 -41 -36 -133 -78 -198 -46
-72 -181 -199 -170 -160 3 10 14 48 24 84 23 82 94 195 157 249 52 44 67 50
67 25z m-784 -87 c75 -114 106 -232 102 -390 l-3 -118 -62 96 c-79 121 -123
258 -123 383 0 87 6 115 24 109 6 -1 34 -38 62 -80z m548 67 c3 -9 6 -52 6
-96 0 -125 -44 -262 -123 -383 l-62 -96 -3 120 c-2 105 1 132 24 213 15 55 43
120 66 158 62 100 80 116 92 84z m-966 -28 c26 -13 66 -44 88 -68 43 -44 96
-119 90 -125 -9 -10 -126 52 -159 85 -37 35 -97 114 -97 126 0 13 33 5 78 -18z
m1382 18 c0 -11 -43 -69 -84 -112 -39 -41 -101 -80 -155 -97 l-23 -7 18 32
c33 57 115 140 163 165 44 23 81 32 81 19z m-748 -46 c6 -17 -1 -38 -13 -38
-5 0 -9 11 -9 25 0 26 14 34 22 13z m58 -13 c0 -14 -4 -25 -9 -25 -12 0 -19
21 -13 38 8 21 22 13 22 -13z m-748 -32 c26 -14 57 -37 70 -50 l23 -25 -50 7
c-61 9 -131 43 -165 80 l-25 28 50 -8 c28 -4 71 -18 97 -32z m1537 11 c-33
-36 -104 -70 -164 -79 l-50 -7 20 22 c42 46 128 85 199 89 18 1 17 -1 -5 -25z
m-806 -36 c8 -18 27 -73 41 -123 23 -78 26 -108 26 -234 0 -142 -1 -150 -42
-293 -24 -82 -45 -148 -48 -148 -3 0 -24 66 -47 148 -42 143 -43 151 -43 293
0 126 3 156 26 234 28 97 52 155 64 155 4 0 15 -15 23 -32z"/>
<path d="M476 1911 c-3 -5 1 -11 9 -14 9 -4 12 -1 8 9 -6 16 -10 17 -17 5z"/>
<path d="M1587 1906 c-4 -10 -1 -13 8 -9 8 3 12 9 9 14 -7 12 -11 11 -17 -5z"/>
<path d="M146 1545 c4 -8 10 -15 15 -15 5 0 9 7 9 15 0 8 -7 15 -15 15 -9 0
-12 -6 -9 -15z"/>
<path d="M1910 1545 c0 -8 4 -15 9 -15 5 0 11 7 15 15 3 9 0 15 -9 15 -8 0
-15 -7 -15 -15z"/>
<path d="M65 1530 c-4 -6 -1 -9 7 -8 7 2 12 -3 10 -11 -2 -9 3 -11 13 -7 9 3
19 6 23 6 8 0 -31 29 -40 30 -4 0 -10 -5 -13 -10z"/>
<path d="M40 1424 c0 -13 30 -34 47 -33 15 0 14 2 -4 11 -13 6 -23 15 -23 20
0 4 -4 8 -10 8 -5 0 -10 -3 -10 -6z"/>
<path d="M2020 1422 c0 -5 -10 -14 -22 -20 -19 -9 -20 -11 -5 -11 10 -1 25 5
33 13 16 17 18 26 4 26 -5 0 -10 -4 -10 -8z"/>
<path d="M66 1365 c-16 -12 -17 -15 -4 -15 9 0 18 7 22 15 7 18 6 18 -18 0z"/>
<path d="M1996 1366 c3 -9 13 -16 22 -16 8 0 13 1 11 3 -2 1 -12 9 -22 16 -15
12 -17 12 -11 -3z"/>
<path d="M68 1303 c6 -2 18 -2 25 0 6 3 1 5 -13 5 -14 0 -19 -2 -12 -5z"/>
<path d="M1988 1303 c6 -2 18 -2 25 0 6 3 1 5 -13 5 -14 0 -19 -2 -12 -5z"/>
</g>
</svg>
