<?xml version="1.0" standalone="no"?>
<!DOCTYPE svg PUBLIC "-//W3C//DTD SVG 20010904//EN"
 "http://www.w3.org/TR/2001/REC-SVG-20010904/DTD/svg10.dtd">
<svg version="1.0" xmlns="http://www.w3.org/2000/svg"
 width="174.000000pt" height="233.000000pt" viewBox="0 0 174.000000 233.000000"
 preserveAspectRatio="xMidYMid meet">

<g transform="translate(0.000000,233.000000) scale(0.100000,-0.100000)"
fill="#000000" stroke="none">
<path d="M901 2238 c5 -17 13 -34 17 -37 16 -11 32 -49 32 -79 0 -18 10 -38
26 -53 14 -13 34 -38 45 -56 12 -18 25 -33 30 -33 14 0 11 127 -5 163 -15 38
-112 127 -138 127 -14 0 -15 -5 -7 -32z"/>
<path d="M640 2231 c0 -4 25 -32 56 -61 54 -51 56 -52 102 -45 26 4 49 9 51
11 8 8 -21 32 -61 49 -24 10 -62 27 -85 37 -46 20 -63 22 -63 9z"/>
<path d="M532 2080 c-28 -23 -54 -50 -57 -62 -11 -33 5 -125 26 -152 17 -21
28 -25 94 -28 74 -3 75 -3 75 21 0 16 -17 40 -49 70 -27 25 -51 53 -53 61 -3
8 5 35 17 60 21 42 23 70 5 70 -4 0 -30 -18 -58 -40z"/>
<path d="M1188 2082 c2 -17 -5 -46 -17 -70 -24 -48 -26 -79 -6 -106 8 -11 15
-28 15 -38 0 -31 -28 -32 -66 -2 -105 86 -119 89 -171 44 -37 -33 -53 -36 -86
-18 -50 26 -61 68 -32 118 27 47 11 68 -26 34 -11 -10 -37 -17 -64 -18 -25 0
-45 -5 -45 -9 0 -4 13 -33 29 -65 16 -31 32 -76 36 -99 10 -62 26 -79 61 -65
16 6 49 14 74 17 25 4 55 17 68 28 23 22 24 22 35 2 19 -32 36 -83 30 -89 -4
-3 -18 -6 -33 -6 -43 0 -128 -29 -156 -53 -19 -17 -29 -38 -35 -77 -10 -64
-20 -77 -42 -55 -24 23 -40 93 -33 138 l7 40 -28 -18 c-15 -10 -34 -27 -41
-37 -12 -16 -15 -15 -44 18 -17 19 -39 39 -48 44 -16 9 -18 4 -16 -43 1 -48
-1 -52 -23 -55 -13 -2 -36 5 -51 17 -27 19 -28 19 -23 1 6 -22 51 -70 65 -70
6 0 47 -17 92 -39 60 -28 92 -50 117 -80 31 -39 36 -42 69 -36 52 9 64 -9 50
-70 -6 -26 -8 -50 -5 -53 3 -3 21 2 40 11 31 15 36 15 41 2 3 -8 2 -20 -2 -27
-15 -24 -54 -143 -54 -165 0 -114 -69 -205 -180 -237 -36 -11 -73 -23 -83 -28
-29 -15 -4 -35 72 -58 82 -26 106 -41 119 -77 26 -76 -49 -157 -243 -265 -121
-68 -164 -82 -217 -74 -52 8 -47 -11 7 -32 65 -25 102 -58 144 -131 74 -126
136 -158 203 -104 42 35 42 36 139 170 45 62 92 119 105 127 21 14 24 14 40
-1 18 -18 16 -91 -6 -243 -6 -41 -8 -86 -5 -99 6 -24 7 -24 24 -5 10 10 28 46
41 79 36 94 76 168 103 193 l25 23 38 -57 c60 -90 67 -85 58 42 -10 134 -10
260 -1 297 5 18 14 27 28 27 11 0 42 11 68 25 49 24 84 66 96 116 5 22 14 28
48 32 43 6 75 33 118 102 23 36 25 88 4 105 -21 18 -19 40 10 83 62 91 80 181
51 252 -12 28 -12 36 0 52 16 21 19 119 3 128 -6 4 -21 -3 -34 -15 -48 -45
-72 17 -39 96 20 49 13 108 -17 140 -39 41 -49 32 -49 -46 l0 -70 -28 0 c-56
0 -70 -25 -60 -105 4 -31 -24 -28 -65 6 -78 64 -109 194 -35 145 22 -14 27
-13 64 9 58 34 72 72 49 130 -19 51 -74 137 -91 142 -7 3 -9 -21 -6 -75 4 -76
4 -79 -23 -100 -20 -16 -32 -19 -45 -12 -18 10 -22 24 -49 175 -10 57 -35 105
-57 112 -6 2 -9 -8 -6 -25z m36 -308 c14 -5 11 -12 -14 -40 -27 -31 -30 -42
-30 -100 0 -61 -1 -64 -22 -60 -13 3 -41 7 -63 10 l-40 5 0 -64 c0 -57 -3 -67
-29 -94 -16 -17 -32 -28 -35 -25 -3 3 -4 34 -2 69 2 57 -1 72 -28 122 -19 34
-27 61 -22 66 10 10 117 5 142 -6 13 -7 15 0 15 41 -1 63 15 82 69 82 24 0 51
-3 59 -6z m106 -204 c20 -37 12 -106 -16 -139 -25 -30 -26 -42 -9 -85 7 -16 5
-17 -16 -11 -67 20 -81 82 -35 152 29 43 29 52 10 122 l-7 25 31 -23 c18 -12
37 -31 42 -41z m-423 -15 c26 -47 17 -75 -26 -75 -40 0 -53 38 -31 95 13 34
30 28 57 -20z m243 -121 c41 -94 17 -164 -55 -164 -19 0 -35 2 -35 5 0 2 14
26 30 52 24 37 30 58 30 100 0 29 2 53 5 53 3 0 15 -21 25 -46z m355 24 c33
-15 32 -24 -5 -31 -16 -4 -47 -25 -69 -47 -31 -32 -40 -37 -45 -24 -11 28 -6
69 10 92 17 25 66 30 109 10z m-7 -190 c17 -17 15 -73 -2 -87 -11 -9 -25 -9
-55 -1 -23 6 -41 14 -41 17 0 9 72 83 80 83 3 0 11 -5 18 -12z m-294 -107 c17
-11 39 -34 50 -51 l18 -32 -47 27 c-46 27 -48 27 -81 11 -43 -20 -60 -20 -68
0 -9 23 -9 23 27 44 40 25 61 25 101 1z m37 -177 c11 -13 9 -23 -10 -59 -13
-24 -31 -51 -40 -59 -15 -13 -16 -9 -16 60 0 73 0 74 26 74 15 0 32 -7 40 -16z"/>
<path d="M300 2008 c0 -6 25 -37 55 -69 30 -32 55 -54 55 -50 0 29 -34 113
-50 121 -25 14 -60 13 -60 -2z"/>
<path d="M180 1950 c0 -41 -5 -56 -26 -77 -21 -21 -32 -25 -65 -20 -21 3 -39
3 -39 1 0 -8 55 -104 60 -104 3 0 13 17 22 38 24 56 61 90 104 97 67 11 67 12
12 65 -29 27 -56 50 -60 50 -4 0 -8 -23 -8 -50z"/>
<path d="M200 1620 c-17 -24 -26 -29 -46 -24 -21 5 -24 3 -24 -21 0 -18 -6
-29 -20 -32 -20 -5 -27 -27 -11 -37 4 -3 17 1 27 9 10 8 33 15 50 15 62 0 109
71 72 108 -18 18 -24 15 -48 -18z"/>
<path d="M338 1618 c12 -46 107 -90 107 -49 0 15 -7 20 -71 49 -40 18 -41 18
-36 0z"/>
<path d="M96 1223 c-22 -23 9 -67 57 -78 21 -6 27 -4 27 10 0 28 -19 53 -49
63 -16 6 -32 8 -35 5z"/>
<path d="M256 1179 c4 -31 2 -72 -6 -105 -21 -86 14 -99 64 -24 23 35 29 38
59 33 26 -4 36 -1 41 12 3 9 4 21 0 26 -11 19 7 49 30 49 33 0 88 -25 125 -55
33 -29 67 -28 105 1 23 16 18 23 -36 52 -73 41 -169 62 -282 62 l-107 0 7 -51z"/>
<path d="M337 823 c-15 -15 -51 -20 -107 -13 -8 1 -39 -7 -69 -18 -49 -18 -52
-21 -33 -31 11 -6 32 -11 46 -11 24 0 26 -4 26 -39 0 -27 7 -48 23 -64 19 -22
35 -26 137 -35 63 -6 119 -7 123 -2 5 4 -8 20 -29 34 -34 23 -40 24 -54 11
-19 -17 -66 -20 -75 -4 -4 6 -23 9 -44 7 -30 -2 -36 0 -39 18 -2 16 5 25 32
35 19 8 48 32 65 53 43 54 41 102 -2 59z"/>
<path d="M270 545 c27 -29 71 -33 94 -9 28 27 18 34 -51 34 l-66 0 23 -25z"/>
</g>
</svg>
