<?xml version="1.0" standalone="no"?>
<!DOCTYPE svg PUBLIC "-//W3C//DTD SVG 20010904//EN"
 "http://www.w3.org/TR/2001/REC-SVG-20010904/DTD/svg10.dtd">
<svg version="1.0" xmlns="http://www.w3.org/2000/svg"
 width="500.000000pt" height="500.000000pt" viewBox="0 0 500.000000 500.000000"
 preserveAspectRatio="xMidYMid meet">

<g transform="translate(0.000000,500.000000) scale(0.100000,-0.100000)"
fill="#000000" stroke="none">
<path d="M176 4984 c-32 -10 -64 -31 -96 -63 -87 -87 -80 105 -80 -2161 0
-1300 4 -2026 10 -2060 13 -67 63 -131 133 -168 l52 -27 1154 -3 1154 -2 96
-93 c143 -136 175 -160 309 -226 266 -132 377 -162 628 -169 275 -7 442 30
700 156 176 85 317 201 463 382 124 153 239 415 276 627 24 138 20 383 -9 523
-34 168 -150 440 -234 549 -95 126 -325 331 -454 405 -91 53 -352 138 -480
157 -98 15 -270 17 -385 6 l-82 -8 -3 723 c-3 689 -4 725 -22 758 -29 53 -647
667 -693 688 -35 16 -123 17 -1213 19 -1021 2 -1181 0 -1224 -13z m2326 -427
c3 -272 3 -274 28 -309 48 -71 53 -72 360 -78 l275 -5 0 -699 0 -699 -90 -34
c-49 -20 -110 -44 -135 -55 -62 -27 -204 -121 -232 -153 -12 -14 -25 -25 -30
-25 -4 0 -8 42 -8 93 0 159 -39 240 -142 291 -135 68 -293 2 -342 -142 -23
-65 -23 -420 -1 -483 21 -57 56 -101 108 -136 l44 -28 -17 -40 c-140 -318
-180 -604 -125 -893 21 -110 109 -364 151 -435 19 -32 34 -60 34 -63 0 -7
-2155 -4 -2166 4 -5 4 -18 18 -27 32 -16 23 -17 164 -17 2054 l0 2030 22 23
21 23 1143 0 1143 0 3 -273z m548 -224 c0 -2 -84 -2 -187 -1 l-188 3 -3 191
-2 192 190 -191 c104 -104 190 -192 190 -194z m-581 -1609 l31 -26 0 -192 0
-192 -36 -32 c-44 -39 -63 -40 -103 -6 l-31 26 0 198 0 198 31 26 c17 14 41
26 54 26 13 0 37 -12 54 -26z m1396 -83 c201 -50 384 -146 537 -281 167 -148
250 -262 342 -468 77 -171 104 -455 67 -694 -28 -183 -81 -319 -186 -478 -48
-72 -253 -281 -329 -335 -61 -43 -207 -119 -289 -150 -168 -63 -481 -80 -704
-38 -190 36 -421 157 -563 294 -170 165 -280 336 -353 550 -73 211 -75 508 -6
735 54 178 200 417 330 540 185 174 450 307 684 344 101 15 378 5 470 -19z"/>
<path d="M520 3984 c-103 -33 -152 -83 -177 -176 -14 -55 -18 -336 -7 -422 10
-68 59 -144 118 -180 55 -35 149 -46 209 -27 54 18 121 83 146 142 21 48 22
62 19 277 -3 210 -5 230 -25 267 -29 54 -58 80 -121 104 -49 19 -126 26 -162
15z m107 -159 c34 -24 43 -76 43 -240 0 -82 -5 -167 -10 -187 -20 -70 -81 -88
-131 -39 l-29 29 0 197 0 197 29 29 c33 32 65 37 98 14z"/>
<path d="M1099 3965 c-85 -63 -112 -142 -64 -190 13 -14 29 -25 35 -25 6 0 10
-71 10 -210 0 -175 -2 -210 -14 -210 -23 0 -56 -50 -56 -85 0 -20 8 -39 23
-53 21 -20 34 -22 138 -22 108 0 117 2 137 23 30 32 29 81 -3 112 -13 14 -31
25 -40 25 -13 0 -15 37 -15 305 l0 306 -25 24 c-32 33 -80 33 -126 0z"/>
<path d="M1542 3960 c-58 -27 -65 -34 -90 -87 -27 -58 -27 -59 -27 -288 0
-227 0 -231 26 -286 40 -85 118 -131 220 -130 97 0 171 45 211 129 22 45 23
58 23 287 0 227 -1 242 -22 286 -27 55 -43 69 -110 97 -76 32 -152 30 -231 -8z
m161 -132 c44 -23 46 -34 47 -240 0 -108 -3 -204 -6 -213 -8 -19 -55 -45 -84
-45 -12 0 -35 13 -51 29 l-29 29 0 197 0 197 29 29 c31 31 59 36 94 17z"/>
<path d="M2172 3950 c-62 -48 -82 -76 -82 -113 0 -40 14 -62 50 -77 l30 -12 0
-209 c0 -170 -3 -209 -14 -209 -7 0 -25 -9 -40 -21 -33 -26 -37 -88 -6 -119
21 -21 49 -25 180 -20 89 2 120 22 120 77 0 36 -36 83 -65 83 -13 0 -15 36
-15 304 0 292 -1 304 -21 330 -31 40 -75 35 -137 -14z"/>
<path d="M2644 3967 c-66 -29 -75 -37 -110 -99 l-29 -53 -3 -207 c-4 -233 5
-286 58 -350 16 -20 53 -48 82 -62 122 -61 266 -14 331 108 20 38 22 57 25
259 3 180 1 226 -13 266 -44 133 -204 198 -341 138z m155 -153 l31 -26 0 -202
c0 -189 -1 -204 -20 -224 -41 -44 -95 -41 -123 7 -25 43 -25 394 0 431 33 49
66 53 112 14z"/>
<path d="M472 2884 c-53 -26 -84 -59 -118 -124 -16 -29 -19 -64 -22 -214 -5
-224 1 -270 41 -337 99 -164 338 -156 430 15 21 39 22 53 22 276 0 223 -1 237
-22 276 -64 121 -211 168 -331 108z m165 -158 l27 -24 -1 -203 -2 -204 -26
-22 c-34 -30 -66 -29 -104 3 l-31 26 0 198 0 198 31 26 c38 32 70 33 106 2z"/>
<path d="M1150 2894 c-50 -22 -89 -61 -116 -119 -23 -48 -24 -59 -24 -275 0
-216 1 -227 24 -275 44 -92 112 -135 216 -135 104 0 172 43 216 135 23 48 24
59 24 275 0 216 -1 227 -24 275 -44 93 -112 135 -218 135 -35 -1 -79 -8 -98
-16z m168 -180 c21 -24 22 -32 22 -214 0 -185 -1 -189 -24 -217 -19 -22 -32
-28 -66 -28 -34 0 -47 6 -66 28 -23 27 -24 32 -24 215 0 156 3 191 16 210 34
48 102 51 142 6z"/>
<path d="M1733 2846 c-49 -50 -63 -72 -63 -95 0 -32 20 -58 57 -72 l23 -9 0
-210 c0 -183 -2 -210 -15 -210 -9 0 -27 -11 -40 -25 -31 -30 -32 -73 -4 -109
20 -25 23 -26 140 -26 106 0 121 2 139 20 20 20 24 35 21 75 -2 23 -45 65 -67
65 -12 0 -14 46 -14 304 0 292 -1 304 -21 330 -15 19 -29 26 -57 26 -31 0 -44
-9 -99 -64z"/>
<path d="M472 1804 c-53 -26 -84 -59 -118 -124 -16 -29 -19 -64 -22 -219 -5
-230 1 -274 41 -342 25 -41 43 -59 82 -78 71 -35 155 -39 225 -11 65 25 94 50
123 105 20 37 22 57 25 267 3 214 2 229 -19 277 -23 56 -82 115 -135 137 -55
23 -142 18 -202 -12z m159 -153 c23 -19 24 -25 29 -203 6 -222 5 -229 -26
-263 -21 -22 -31 -26 -57 -21 -18 3 -42 17 -54 32 -22 24 -23 32 -23 220 l0
196 29 29 c34 34 69 37 102 10z"/>
<path d="M1112 1814 c-43 -30 -102 -114 -102 -146 0 -39 16 -67 46 -78 l24
-10 0 -210 c0 -168 -3 -210 -13 -210 -8 0 -23 -10 -35 -23 -29 -31 -29 -77 1
-105 21 -20 34 -22 138 -22 108 0 117 2 137 23 12 13 22 36 22 51 0 29 -39 76
-64 76 -13 0 -16 43 -18 316 l-3 316 -24 19 c-28 23 -79 25 -109 3z"/>
<path d="M1554 1805 c-63 -31 -85 -56 -110 -120 -17 -44 -19 -77 -19 -275 l0
-225 30 -60 c26 -51 37 -64 80 -84 72 -35 164 -39 235 -11 68 27 85 42 113 99
21 44 22 59 22 286 0 229 -1 242 -23 287 -41 86 -112 128 -215 128 -47 0 -76
-6 -113 -25z m155 -150 c16 -8 31 -22 35 -30 3 -9 6 -106 6 -215 l0 -198 -32
-27 c-38 -32 -81 -29 -115 11 -22 24 -23 32 -23 220 l0 196 29 29 c33 32 58
36 100 14z"/>
<path d="M3935 2230 c-16 -10 -169 -158 -340 -328 l-310 -310 -66 -5 c-161
-14 -330 -119 -404 -251 -114 -204 -76 -448 94 -609 94 -88 179 -124 316 -134
75 -6 215 21 278 53 51 26 159 143 194 209 29 56 63 183 63 239 0 18 72 96
308 333 375 374 355 342 323 536 -26 151 -41 189 -87 218 -36 22 -241 69 -302
69 -20 0 -50 -9 -67 -20z m187 -167 c61 -12 89 -22 92 -32 3 -9 12 -53 22 -99
l17 -83 -84 -85 -83 -84 -43 42 c-48 48 -91 55 -125 21 -34 -34 -28 -84 15
-132 20 -23 37 -44 37 -47 0 -10 -103 -114 -112 -114 -6 0 -28 16 -51 35 -49
42 -98 47 -134 13 -36 -33 -30 -71 19 -124 l41 -45 -69 -70 -69 -69 -6 -93
c-11 -160 -66 -254 -181 -313 -42 -22 -71 -28 -140 -32 -76 -4 -92 -2 -141 21
-265 121 -284 462 -35 613 58 35 69 38 153 42 56 2 101 9 120 19 17 9 167 154
335 324 168 169 311 308 319 308 8 1 54 -7 103 -16z"/>
<path d="M3090 1142 c-46 -46 -40 -72 32 -154 88 -99 131 -117 180 -78 30 23
39 59 24 92 -17 35 -147 155 -178 163 -22 6 -33 1 -58 -23z"/>
</g>
</svg>
