<?xml version="1.0" standalone="no"?>
<!DOCTYPE svg PUBLIC "-//W3C//DTD SVG 20010904//EN"
 "http://www.w3.org/TR/2001/REC-SVG-20010904/DTD/svg10.dtd">
<svg version="1.0" xmlns="http://www.w3.org/2000/svg"
 width="162.000000pt" height="171.000000pt" viewBox="0 0 162.000000 171.000000"
 preserveAspectRatio="xMidYMid meet">

<g transform="translate(0.000000,171.000000) scale(0.100000,-0.100000)"
fill="#000000" stroke="none">
<path d="M845 1617 c-152 -79 -215 -131 -268 -223 -3 -5 45 15 106 46 62 31
143 65 180 75 l67 20 18 55 c18 52 19 80 4 80 -4 -1 -52 -24 -107 -53z"/>
<path d="M988 1509 c-85 -12 -199 -53 -319 -115 l-107 -55 -78 27 c-116 39
-180 32 -306 -32 -104 -52 -117 -68 -97 -121 16 -42 35 -60 125 -111 l82 -46
7 -106 c14 -216 57 -334 157 -433 48 -46 62 -69 78 -120 11 -34 20 -76 20 -94
0 -38 -32 -73 -68 -73 -57 0 -86 -56 -41 -80 29 -16 155 -18 170 -3 7 7 18 65
25 129 7 64 15 118 18 121 3 3 37 -18 75 -46 39 -28 72 -51 74 -51 2 0 -1 25
-7 56 -11 61 1 129 30 168 16 21 16 21 9 -4 -4 -14 -10 -59 -12 -101 -4 -63
-1 -85 16 -124 12 -27 19 -50 17 -52 -2 -3 -38 -8 -80 -12 -65 -6 -80 -11
-106 -36 -36 -35 -37 -39 -5 -70 29 -30 63 -32 164 -10 39 8 121 17 183 21 62
3 126 10 141 16 36 14 50 47 36 87 -10 27 -6 35 43 100 47 63 57 71 86 71 95
0 169 105 140 196 -14 43 -47 57 -76 31 -9 -8 -27 -19 -39 -26 -20 -10 -22 -7
-42 58 -39 128 -141 233 -282 289 -30 12 -109 35 -177 51 -139 34 -176 55
-193 111 -11 37 -14 39 -63 46 -49 7 -47 8 64 20 170 18 250 49 342 132 46 41
122 167 114 188 -6 15 -30 16 -118 3z"/>
</g>
</svg>
