<?xml version="1.0" standalone="no"?>
<!DOCTYPE svg PUBLIC "-//W3C//DTD SVG 20010904//EN"
 "http://www.w3.org/TR/2001/REC-SVG-20010904/DTD/svg10.dtd">
<svg version="1.0" xmlns="http://www.w3.org/2000/svg"
 width="300.000000pt" height="300.000000pt" viewBox="0 0 300.000000 300.000000"
 preserveAspectRatio="xMidYMid meet">

<g transform="translate(0.000000,300.000000) scale(0.100000,-0.100000)"
fill="#000000" stroke="none">
<path d="M976 2270 c-112 -19 -222 -107 -274 -218 -23 -48 -27 -71 -27 -147 0
-82 3 -97 33 -157 37 -75 104 -142 179 -179 41 -20 63 -24 153 -24 96 0 110 3
164 29 69 34 135 96 166 155 19 39 23 41 64 41 42 0 48 4 93 56 l48 57 50 -57
c28 -31 56 -56 62 -56 7 0 33 18 58 40 25 22 49 40 52 40 3 0 27 -18 53 -40
26 -22 53 -40 59 -40 6 0 33 12 61 28 l49 27 50 -27 c73 -41 101 -37 177 25
86 70 86 86 -3 161 l-67 56 -393 0 -393 0 -19 38 c-52 100 -154 172 -271 191
-36 6 -67 10 -70 10 -3 -1 -27 -5 -54 -9z m27 -283 c55 -45 52 -132 -6 -167
-47 -29 -90 -26 -129 9 -28 25 -33 36 -33 76 0 40 5 51 33 76 41 37 94 39 135
6z"/>
<path d="M1570 1625 c0 -60 3 -75 15 -75 12 0 15 15 15 75 0 60 -3 75 -15 75
-12 0 -15 -15 -15 -75z"/>
<path d="M1780 1625 c0 -60 3 -75 15 -75 12 0 15 15 15 75 0 60 -3 75 -15 75
-12 0 -15 -15 -15 -75z"/>
<path d="M1980 1625 c0 -68 2 -75 20 -75 18 0 20 7 20 75 0 68 -2 75 -20 75
-18 0 -20 -7 -20 -75z"/>
<path d="M1470 1595 c0 -33 4 -45 15 -45 11 0 15 12 15 45 0 33 -4 45 -15 45
-11 0 -15 -12 -15 -45z"/>
<path d="M1670 1595 c0 -38 3 -45 20 -45 17 0 20 7 20 45 0 38 -3 45 -20 45
-17 0 -20 -7 -20 -45z"/>
<path d="M1880 1595 c0 -33 4 -45 15 -45 11 0 15 12 15 45 0 33 -4 45 -15 45
-11 0 -15 -12 -15 -45z"/>
<path d="M2090 1595 c0 -33 4 -45 15 -45 11 0 15 12 15 45 0 33 -4 45 -15 45
-11 0 -15 -12 -15 -45z"/>
<path d="M2190 1595 c0 -33 4 -45 15 -45 11 0 15 12 15 45 0 33 -4 45 -15 45
-11 0 -15 -12 -15 -45z"/>
<path d="M1467 1486 c-3 -8 -60 -26 -141 -45 -107 -26 -138 -37 -147 -53 -8
-16 -8 -23 2 -29 20 -13 29 -11 29 5 0 10 40 24 138 47 75 18 140 37 144 43
13 18 9 46 -6 46 -8 0 -16 -6 -19 -14z"/>
<path d="M1675 1484 c-6 -9 -48 -30 -95 -47 -69 -26 -86 -36 -88 -54 -4 -26
12 -30 33 -10 7 8 48 26 92 42 81 29 93 38 93 68 0 21 -22 22 -35 1z"/>
<path d="M1880 1485 c0 -8 -18 -31 -40 -51 -41 -38 -51 -68 -25 -78 9 -3 15 0
15 8 0 8 18 30 40 50 41 37 56 86 25 86 -8 0 -15 -7 -15 -15z"/>
<path d="M2093 1463 c11 -76 19 -102 33 -107 22 -8 29 23 14 58 -7 17 -15 43
-17 59 -3 15 -12 27 -20 27 -12 0 -14 -8 -10 -37z"/>
<path d="M2190 1478 c1 -24 93 -132 104 -121 15 15 3 42 -34 78 -22 21 -40 45
-40 52 0 7 -7 13 -15 13 -9 0 -15 -9 -15 -22z"/>
<path d="M1140 1296 c0 -8 8 -16 17 -18 13 -2 17 -15 19 -57 1 -45 -1 -54 -17
-58 -37 -10 -19 -23 31 -23 28 0 50 5 50 10 0 6 -7 10 -15 10 -12 0 -15 15
-15 75 l0 75 -35 0 c-24 0 -35 -5 -35 -14z"/>
<path d="M1300 1294 c-6 -7 -10 -43 -8 -81 l3 -68 50 0 50 0 0 80 0 80 -42 1
c-24 1 -48 -5 -53 -12z m70 -75 c0 -47 -2 -50 -22 -47 -20 3 -23 10 -26 51 -3
45 -2 47 22 47 24 0 26 -3 26 -51z"/>
<path d="M1457 1303 c-13 -12 -7 -23 13 -23 18 0 20 -7 20 -56 0 -47 -3 -57
-20 -61 -37 -10 -20 -23 30 -23 48 0 66 12 35 24 -11 4 -15 22 -15 76 l0 70
-28 0 c-16 0 -32 -3 -35 -7z"/>
<path d="M1611 1296 c-7 -9 -11 -41 -9 -83 l3 -68 55 0 55 0 3 68 c3 81 -6 97
-58 97 -21 0 -43 -6 -49 -14z m69 -76 c0 -43 -3 -50 -20 -50 -17 0 -20 7 -20
50 0 43 3 50 20 50 17 0 20 -7 20 -50z"/>
<path d="M1770 1296 c0 -9 7 -16 15 -16 12 0 15 -13 15 -60 0 -47 -3 -60 -15
-60 -8 0 -15 -4 -15 -10 0 -5 23 -10 50 -10 28 0 50 5 50 10 0 6 -7 10 -15 10
-11 0 -15 17 -17 73 l-3 72 -32 3 c-25 2 -33 -1 -33 -12z"/>
<path d="M1932 1301 c-9 -5 -12 -29 -10 -82 l3 -74 50 0 50 0 3 68 c2 42 -2
74 -9 83 -12 15 -66 19 -87 5z m68 -81 c0 -47 -2 -50 -25 -50 -23 0 -25 3 -25
50 0 47 2 50 25 50 23 0 25 -3 25 -50z"/>
<path d="M2080 1297 c0 -8 9 -17 20 -20 17 -4 20 -14 20 -57 0 -43 -3 -53 -20
-57 -37 -10 -20 -23 30 -23 28 0 50 5 50 10 0 6 -7 10 -15 10 -11 0 -15 17
-17 73 l-3 72 -32 3 c-24 2 -33 -1 -33 -11z"/>
<path d="M2230 1296 c0 -9 7 -16 15 -16 12 0 15 -13 15 -60 0 -47 -3 -60 -15
-60 -8 0 -15 -4 -15 -10 0 -5 23 -10 50 -10 28 0 50 5 50 10 0 6 -7 10 -15 10
-11 0 -15 17 -17 73 l-3 72 -32 3 c-25 2 -33 -1 -33 -12z"/>
</g>
</svg>
