<?xml version="1.0" standalone="no"?>
<!DOCTYPE svg PUBLIC "-//W3C//DTD SVG 20010904//EN"
 "http://www.w3.org/TR/2001/REC-SVG-20010904/DTD/svg10.dtd">
<svg version="1.0" xmlns="http://www.w3.org/2000/svg"
 width="265.000000pt" height="264.000000pt" viewBox="0 0 265.000000 264.000000"
 preserveAspectRatio="xMidYMid meet">

<g transform="translate(0.000000,264.000000) scale(0.100000,-0.100000)"
fill="#000000" stroke="none">
<path d="M1165 2206 c-101 -26 -165 -70 -178 -124 -3 -12 2 -92 10 -178 l16
-155 -26 -57 c-26 -56 -27 -68 -52 -527 -14 -259 -28 -498 -31 -532 l-5 -62
107 -71 106 -72 202 -5 201 -5 118 67 118 67 -6 97 c-3 53 -15 309 -25 569
-19 452 -21 474 -42 502 -21 29 -21 31 -8 198 12 157 11 170 -5 196 -24 36
-86 71 -161 90 -75 19 -266 20 -339 2z m317 -17 c249 -53 233 -215 -26 -260
-145 -25 -350 10 -415 70 -76 71 -10 161 142 190 63 13 239 13 299 0z m-434
-219 c53 -42 157 -65 292 -65 138 0 208 15 275 60 l38 26 -5 -71 c-5 -61 -10
-76 -34 -101 -35 -36 -104 -58 -209 -66 -152 -11 -357 33 -374 80 -10 28 -22
157 -15 157 3 0 17 -9 32 -20z m587 -197 c-10 -44 -33 -62 -104 -84 -121 -37
-349 -26 -444 23 -36 18 -67 61 -54 74 3 4 25 -1 49 -11 148 -59 386 -60 498
-1 60 31 63 31 55 -1z m-573 -73 c57 -33 155 -53 273 -53 122 -1 198 13 264
49 80 44 77 63 100 -501 11 -269 23 -522 26 -561 l5 -70 -112 -63 -113 -63
-192 6 -192 5 -101 67 -101 68 5 40 c3 23 18 259 32 526 22 405 30 492 45 528
10 23 20 42 23 42 3 0 20 -9 38 -20z"/>
<path d="M1391 2151 c-19 -12 -5 -31 24 -31 13 0 27 5 31 11 7 11 -12 29 -31
29 -5 0 -16 -4 -24 -9z"/>
<path d="M1241 2141 c-19 -12 -5 -31 24 -31 13 0 27 5 31 11 7 11 -12 29 -31
29 -5 0 -16 -4 -24 -9z"/>
<path d="M1165 2070 c-4 -7 -3 -16 3 -22 14 -14 47 -6 47 12 0 18 -40 26 -50
10z"/>
<path d="M1466 2072 c-8 -14 20 -34 41 -30 28 5 22 33 -9 36 -14 2 -29 -1 -32
-6z"/>
<path d="M1306 2032 c-3 -5 1 -15 9 -22 17 -14 58 -4 52 13 -4 15 -53 22 -61
9z"/>
<path d="M1070 1885 c7 -8 16 -12 21 -9 13 8 1 24 -18 24 -13 0 -13 -3 -3 -15z"/>
<path d="M1566 1880 c-65 -42 -257 -50 -369 -16 -51 15 -77 3 -30 -15 60 -23
200 -34 284 -21 84 12 150 37 157 60 5 16 -7 14 -42 -8z"/>
<path d="M1156 1593 c-3 -27 -15 -262 -27 -523 -11 -261 -23 -481 -25 -488 -3
-9 -22 -1 -62 27 -59 42 -72 48 -72 33 0 -16 140 -106 149 -96 4 5 18 225 30
489 12 264 24 508 27 543 7 74 -11 87 -20 15z"/>
<path d="M1216 1508 c-3 -40 -8 -190 -11 -333 -3 -143 -8 -347 -12 -452 l-6
-193 138 0 138 0 -6 113 c-4 61 -7 149 -7 195 0 55 -4 82 -12 82 -8 0 -10 -49
-5 -185 l6 -185 -115 0 c-114 0 -114 0 -114 24 0 37 19 663 25 844 4 101 2
162 -4 162 -5 0 -12 -33 -15 -72z"/>
<path d="M1480 1508 c1 -172 29 -970 34 -975 6 -6 143 52 160 68 25 22 -7 16
-68 -12 -37 -17 -69 -29 -72 -26 -5 5 -32 796 -34 965 0 23 -4 42 -10 42 -6 0
-10 -27 -10 -62z"/>
<path d="M1629 1235 c-7 -53 13 -525 23 -525 12 0 0 498 -13 520 -5 8 -9 11
-10 5z"/>
<path d="M1009 1198 c0 -13 -6 -122 -13 -243 -7 -121 -11 -222 -10 -224 13
-18 22 33 28 161 3 84 9 192 13 241 4 62 3 87 -6 87 -6 0 -11 -10 -12 -22z"/>
</g>
</svg>
