<?xml version="1.0" standalone="no"?>
<!DOCTYPE svg PUBLIC "-//W3C//DTD SVG 20010904//EN"
 "http://www.w3.org/TR/2001/REC-SVG-20010904/DTD/svg10.dtd">
<svg version="1.0" xmlns="http://www.w3.org/2000/svg"
 width="131.000000pt" height="180.000000pt" viewBox="0 0 131.000000 180.000000"
 preserveAspectRatio="xMidYMid meet">

<g transform="translate(0.000000,180.000000) scale(0.100000,-0.100000)"
fill="#000000" stroke="none">
<path d="M520 1715 c-106 -30 -214 -101 -265 -175 -26 -37 -46 -117 -65 -261
-7 -48 -18 -98 -25 -112 -12 -24 -12 -26 13 -29 40 -5 39 -26 -2 -25 -20 0
-38 -1 -41 -4 -3 -3 2 -29 11 -58 l15 -52 20 23 19 23 -6 -28 c-7 -30 15 -56
49 -57 9 0 17 -6 17 -14 0 -7 9 -24 19 -38 11 -14 20 -33 20 -44 0 -10 2 -62
4 -114 4 -92 5 -96 41 -137 48 -56 259 -212 347 -258 26 -14 25 -26 -20 -145
-26 -67 -26 -69 -1 -37 29 36 50 25 50 -27 0 -22 3 -65 6 -93 l7 -53 54 0 c53
0 53 0 47 28 -4 15 -12 38 -19 52 -7 14 -16 48 -20 75 l-8 50 22 -19 c11 -11
21 -17 21 -14 0 4 -49 112 -78 171 -2 4 11 8 30 8 18 1 25 3 16 6 -10 2 -18 9
-18 14 0 6 4 8 9 5 5 -3 12 4 15 17 6 21 7 21 20 5 7 -10 20 -18 29 -18 8 0
18 -8 22 -17 7 -17 15 -187 15 -307 0 -52 2 -56 23 -56 23 0 23 2 16 68 -5 37
-8 125 -9 197 -1 141 -17 202 -59 225 -22 11 -28 44 -12 55 6 3 30 32 54 64
38 49 49 76 75 177 45 175 55 283 37 429 -17 145 -41 268 -56 298 -33 61 -131
166 -176 188 -61 29 -183 36 -263 14z m73 -22 c-7 -2 -21 -2 -30 0 -10 3 -4 5
12 5 17 0 24 -2 18 -5z m60 -10 c-7 -2 -19 -2 -25 0 -7 3 -2 5 12 5 14 0 19
-2 13 -5z m-3 -23 c-19 -13 -30 -13 -30 0 0 6 10 10 23 10 18 0 19 -2 7 -10z
m-20 -60 c0 -6 -12 -8 -26 -6 -39 7 -42 16 -6 16 18 0 32 -5 32 -10z m30 -30
c13 -8 13 -10 0 -14 -8 -3 -24 -7 -35 -9 -11 -2 -28 -7 -38 -12 -10 -4 -24 -2
-33 6 -13 11 -11 14 18 25 42 15 69 16 88 4z m-117 -77 c-13 -2 -35 -2 -50 0
-16 2 -5 4 22 4 28 0 40 -2 28 -4z m430 -178 c16 -102 14 -154 -7 -156 -6 -1
-29 -3 -51 -3 -88 -4 -103 -7 -124 -25 -20 -17 -22 -24 -13 -53 24 -81 44
-190 36 -197 -5 -5 -40 -11 -77 -14 -63 -4 -69 -3 -77 17 -7 18 -9 19 -15 4
-7 -19 2 -33 58 -88 20 -20 37 -40 37 -43 0 -3 -18 -11 -40 -17 -30 -8 -47 -7
-73 4 -43 17 -87 10 -87 -14 0 -17 -46 -37 -58 -25 -3 3 0 5 6 5 7 0 12 5 12
12 0 6 -7 5 -18 -5 -17 -16 -20 -15 -40 10 -12 15 -22 39 -22 53 0 18 -3 21
-9 11 -7 -11 -10 -9 -13 10 -2 16 -11 25 -26 27 -27 4 -40 28 -23 45 19 19 13
35 -12 30 -18 -4 -25 2 -34 28 -9 23 -9 36 -2 45 6 7 8 18 4 24 -3 5 0 10 8
10 15 0 12 46 -4 56 -17 10 -10 73 10 93 33 33 49 64 56 111 10 57 47 106 93
121 23 8 83 12 157 11 66 -1 132 2 148 6 15 4 63 7 106 7 l79 0 15 -100z m-13
-396 c0 -15 -7 -29 -15 -33 -8 -3 -15 -12 -15 -20 0 -20 -23 -26 -51 -12 -32
16 -41 76 -10 76 11 0 22 4 25 9 3 4 19 8 36 7 25 -1 30 -5 30 -27z m-80 -128
c0 -14 -5 -18 -20 -14 -11 3 -20 12 -20 19 0 8 9 14 20 14 13 0 20 -7 20 -19z
m-144 -91 c8 0 14 -4 14 -10 0 -13 -77 -13 -85 -1 -6 11 23 21 43 15 8 -2 20
-4 28 -4z m-66 -39 c14 -11 21 -23 17 -28 -5 -4 -12 -1 -17 7 -5 8 -12 11 -17
7 -10 -11 16 -27 44 -27 36 0 94 -32 88 -48 -3 -7 -5 -17 -5 -22 0 -8 -84 -25
-110 -23 -66 8 -110 28 -110 51 0 7 -6 21 -12 32 -11 17 -8 24 25 55 40 38 44
38 97 -4z m190 -261 c0 -5 -7 -7 -15 -4 -8 4 -12 10 -9 15 6 11 24 2 24 -11z"/>
<path d="M568 1145 c-4 -5 -23 -9 -41 -10 -39 -3 -73 -19 -105 -51 -20 -20
-21 -25 -10 -43 7 -12 24 -21 38 -21 14 0 36 -9 50 -20 34 -26 95 -25 150 3
33 16 51 35 71 74 l28 51 -22 6 c-40 11 -152 18 -159 11z"/>
<path d="M350 850 c0 -5 5 -10 10 -10 6 0 10 5 10 10 0 6 -4 10 -10 10 -5 0
-10 -4 -10 -10z"/>
<path d="M202 949 c2 -7 10 -15 17 -17 8 -3 12 1 9 9 -2 7 -10 15 -17 17 -8 3
-12 -1 -9 -9z"/>
<path d="M226 604 c-16 -19 -43 -42 -59 -51 -57 -29 -126 -86 -135 -112 -24
-66 -34 -142 -22 -172 8 -19 10 -50 6 -87 -4 -31 -9 -85 -13 -120 l-5 -62 326
0 c179 0 326 3 325 8 -2 20 -170 262 -238 343 -83 99 -145 206 -145 252 0 20
-3 37 -6 36 -3 0 -18 -16 -34 -35z"/>
</g>
</svg>
