<?xml version="1.0" standalone="no"?>
<!DOCTYPE svg PUBLIC "-//W3C//DTD SVG 20010904//EN"
 "http://www.w3.org/TR/2001/REC-SVG-20010904/DTD/svg10.dtd">
<svg version="1.0" xmlns="http://www.w3.org/2000/svg"
 width="178.000000pt" height="209.000000pt" viewBox="0 0 178.000000 209.000000"
 preserveAspectRatio="xMidYMid meet">

<g transform="translate(0.000000,209.000000) scale(0.100000,-0.100000)"
fill="#000000" stroke="none">
<path d="M790 1836 c-45 -12 -102 -45 -150 -86 -14 -12 -18 -20 -9 -17 8 3 44
12 80 21 35 10 80 22 99 27 19 6 89 13 155 16 l120 5 43 -38 42 -37 0 -135 c0
-119 2 -139 21 -169 12 -19 25 -63 29 -101 8 -58 6 -71 -11 -99 -21 -34 -19
-53 7 -53 18 0 18 0 -10 -57 -14 -26 -27 -60 -31 -75 -4 -14 -28 -46 -53 -71
-26 -24 -62 -65 -79 -91 -48 -68 -70 -73 -170 -41 -101 32 -133 56 -133 96 0
16 -9 38 -20 49 -21 21 -65 27 -75 10 -11 -17 -52 -11 -57 8 -6 23 57 278 73
298 13 15 45 19 53 6 3 -5 -6 -53 -19 -108 -33 -132 -32 -151 1 -151 17 0 42
-16 76 -49 55 -53 55 -50 -9 45 -36 54 -43 73 -43 112 0 26 3 54 6 63 7 17 34
22 34 7 0 -5 12 -23 26 -40 28 -34 66 -40 97 -17 17 13 15 16 -25 38 -33 18
-43 29 -43 48 0 31 30 39 38 11 3 -12 11 -22 19 -24 7 -2 28 -9 46 -15 31 -10
38 -8 82 21 48 31 76 69 65 88 -4 5 -22 9 -41 9 -45 0 -104 25 -104 44 0 29
35 37 85 20 46 -15 75 -14 75 5 0 16 -111 34 -185 28 -39 -2 -90 -14 -115 -25
-62 -28 -162 -18 -211 21 -68 53 -69 55 -69 105 0 42 3 50 30 65 17 10 30 26
30 35 0 9 9 31 19 49 11 17 17 33 15 36 -8 7 -119 -38 -153 -62 -21 -15 -37
-19 -60 -15 -79 16 -80 -83 -1 -116 36 -15 40 -26 40 -120 1 -41 1 -93 1 -115
0 -45 -10 -169 -16 -201 -3 -11 -27 -35 -55 -52 -42 -26 -56 -43 -79 -94 -25
-53 -30 -80 -34 -173 -3 -60 -1 -121 3 -135 9 -29 12 -14 10 51 -1 26 3 50 8
53 18 11 42 -6 49 -33 3 -14 15 -35 26 -47 29 -31 79 -128 67 -132 -11 -4 58
-72 72 -72 14 0 8 -64 -7 -84 -22 -29 -18 -51 10 -64 26 -12 34 -32 13 -33 -7
0 -3 -4 10 -9 12 -5 29 -7 37 -4 21 8 82 -22 96 -47 8 -16 14 -18 22 -10 6 6
19 11 29 11 10 0 18 4 18 8 0 5 36 9 79 9 70 -1 82 2 98 21 17 22 19 22 59 6
39 -15 42 -15 73 4 18 11 39 31 45 44 9 18 20 23 53 24 23 0 48 5 55 11 7 5
21 13 31 16 9 4 17 13 17 21 0 7 7 16 15 20 8 3 15 16 15 28 0 35 15 52 40 45
17 -4 32 4 61 31 21 20 40 44 41 52 2 8 9 21 16 28 14 16 16 36 2 27 -6 -4 -9
4 -7 17 2 24 -15 31 -44 17 -19 -9 -44 5 -35 20 4 6 16 11 27 11 10 0 19 5 19
11 0 7 10 9 25 7 24 -5 25 -3 24 41 -1 69 -17 100 -18 34 -1 -41 -5 -55 -20
-63 -16 -8 -24 -5 -41 18 l-22 27 7 -33 c6 -28 4 -34 -13 -39 -15 -3 -23 -17
-27 -46 -9 -52 -41 -117 -58 -117 -20 0 -37 22 -37 47 0 13 -6 23 -12 22 -29
-3 -38 2 -38 25 0 34 46 86 76 86 22 0 24 4 24 44 0 33 6 49 26 70 15 14 31
26 35 26 5 0 9 6 9 13 0 23 49 81 88 104 43 27 92 31 92 8 0 -8 7 -15 15 -15
8 0 15 -9 15 -20 0 -27 -29 -26 -39 2 l-8 22 -12 -22 c-15 -28 -3 -194 12
-167 5 9 6 36 3 58 -7 51 3 70 35 66 13 -2 33 3 44 11 23 17 32 50 14 50 -7 0
-9 9 -6 21 5 17 2 20 -14 16 -13 -3 -24 1 -31 13 -10 16 -13 17 -23 4 -6 -9
-18 -12 -28 -8 -26 9 -21 34 7 34 13 0 27 7 30 16 4 10 12 14 22 10 15 -6 15
-4 3 10 -8 10 -13 20 -13 23 1 3 -7 17 -18 31 -17 21 -22 22 -39 11 -16 -9
-24 -9 -35 0 -19 16 -18 63 2 80 14 11 19 10 34 -8 10 -12 20 -19 24 -16 10
10 7 55 -3 49 -5 -4 -7 52 -5 132 4 137 -6 224 -32 274 -14 27 -93 108 -107
108 -4 0 -17 9 -29 20 -40 37 -83 50 -170 50 -45 0 -110 7 -143 15 -73 17
-135 18 -195 1z m-242 -493 c2 -8 -6 -13 -22 -13 -26 0 -40 12 -29 24 11 11
46 2 51 -11z m393 -3 c10 -6 19 -20 19 -32 0 -18 -4 -20 -32 -13 -18 4 -45 7
-60 7 -35 -1 -47 17 -23 35 22 16 69 17 96 3z m489 -73 c0 -8 -18 -33 -40 -57
-37 -40 -42 -43 -57 -28 -14 14 -14 21 -3 48 7 18 23 36 34 40 32 13 66 11 66
-3z m-101 -116 c12 -8 12 -14 1 -40 -13 -33 -57 -74 -70 -66 -13 8 32 115 48
115 4 0 13 -4 21 -9z m37 -102 c10 -17 -23 -46 -37 -32 -7 7 -9 19 -6 27 7 18
33 21 43 5z m-563 -343 c8 -20 -21 -56 -45 -56 -27 0 -58 28 -58 52 0 15 8 18
49 18 32 0 51 -5 54 -14z m261 -158 c5 -10 7 -10 12 0 3 6 23 12 45 12 45 0
74 -32 64 -71 -9 -34 -59 -87 -90 -95 -34 -9 -31 6 10 46 19 19 35 40 35 47 0
8 -7 6 -20 -7 -11 -11 -24 -20 -30 -20 -17 0 -50 -43 -50 -67 0 -13 -4 -23 -9
-23 -12 0 -42 65 -43 93 -1 12 -5 27 -9 32 -10 13 -1 26 31 48 29 20 46 22 54
5z m-92 -110 c10 -18 18 -40 20 -48 4 -22 -53 -75 -77 -71 -31 5 -31 9 1 42
l29 31 -30 -8 c-36 -8 -44 -19 -37 -46 4 -18 1 -20 -33 -16 -31 4 -42 -1 -68
-26 -17 -17 -32 -26 -34 -21 -12 35 -31 59 -53 67 l-24 9 22 -24 c41 -43 20
-71 -28 -37 -17 12 -30 17 -30 11 0 -19 -26 -12 -50 14 -20 22 -25 23 -32 10
-12 -20 -28 -19 -44 3 -20 25 -17 40 12 67 27 25 84 35 84 15 0 -5 11 -17 25
-26 23 -15 25 -15 48 12 19 22 33 28 60 27 44 -1 57 -9 57 -34 0 -29 15 -23
18 8 3 34 18 49 62 61 65 19 84 15 102 -20z m-302 -184 c0 -17 -22 -14 -28 4
-2 7 3 12 12 12 9 0 16 -7 16 -16z"/>
<path d="M1365 890 c-14 -16 -15 -20 -4 -20 16 0 39 19 39 32 0 14 -16 9 -35
-12z"/>
<path d="M1502 848 c-10 -12 -10 -22 0 -44 11 -27 12 -28 15 -6 3 12 3 32 1
44 -3 19 -5 19 -16 6z"/>
<path d="M1444 703 c2 -13 0 -24 -5 -24 -5 -1 -13 -2 -18 -3 -22 -3 -20 -14 4
-19 32 -6 43 14 26 46 l-12 22 5 -22z"/>
<path d="M340 545 c0 -56 -54 -71 -78 -22 -8 16 -11 17 -11 6 -1 -17 44 -89
62 -100 5 -4 7 -14 4 -23 -7 -18 67 -105 79 -93 4 4 2 7 -4 7 -7 0 -12 6 -12
13 0 7 -13 23 -30 35 l-29 22 26 61 c20 46 23 63 14 68 -8 5 -10 18 -5 34 4
17 2 27 -5 27 -6 0 -11 -16 -11 -35z"/>
<path d="M380 430 c0 -5 5 -10 10 -10 6 0 10 5 10 10 0 6 -4 10 -10 10 -5 0
-10 -4 -10 -10z"/>
<path d="M435 290 c3 -5 14 -10 23 -10 15 0 15 2 2 10 -20 13 -33 13 -25 0z"/>
</g>
</svg>
